<svg id="Layer_1" data-name="Layer 1" xmlns="http://www.w3.org/2000/svg" viewBox="0 0 545.42 332.62"><defs><style>.cls-1{fill:#fff;}</style></defs><title>logo_cornax</title><path class="cls-1" d="M229.51,82.28c4.1,4.23,8.08,8.36,12.09,12.44a1.41,1.41,0,0,0,1.25.28,3.45,3.45,0,0,1,4.4.95c1.94,2,4.06,3.92,6.09,5.89a1.47,1.47,0,0,0,2,.33,40,40,0,0,1,11.3-3.5,1.34,1.34,0,0,0,.94-0.81c0.07-2.61,0-5.22,0-8h-18V32.14H296v57.7H278.15v8.23l14.05,4.28,21.2-21.69c-1.76-1.54-3.42-3.06-5.17-4.49-1.17-1-2.54-1.68-3.69-2.66A4.5,4.5,0,0,1,305.2,66a8.07,8.07,0,0,1,9.58.81c4.4,3.52,8.62,7.29,12.76,11.11,2.47,2.27,4.92,4.63,6.32,7.81a7.75,7.75,0,0,1,.9,4.88c-0.55,2.48-2.4,3.8-4.61,4.61-2,.72-3.4-0.34-4.65-1.73l-6.76-7.45-20.24,20.73c1.76,3.18,1.66,5.45-.25,7.36s-4.21,2-6.82.46L282,123.47l0.18,0.33H284c6.7-.11,13.4-0.24,20.1-0.33,10.07-.13,20.14-0.15,30.21-0.37a136.17,136.17,0,0,1,18,.67c1.21,0.13,2.42.32,3.62,0.55a6.11,6.11,0,0,1,3.68,2.5,12.25,12.25,0,0,1,2,11.37,5.64,5.64,0,0,1-5.28,4.4,18.55,18.55,0,0,1-6.32-.72c-2.94-.89-3.37-3-3.24-5.61a2.83,2.83,0,0,1,4.08-2.23,14.72,14.72,0,0,1,1.47,1c0.52,0.33,1,1.11,1.68.21a1.76,1.76,0,0,0-.09-2.49,5.13,5.13,0,0,0-1.35-.65,31.91,31.91,0,0,0-10.21-1.47c-6.66,0-13.32.08-20,.11-1.32,0-2.63.2-3.36,1.38-1.33,2.14-3.38,2.51-5.58,2.51-4.59,0-9.19-.05-13.78-0.1l-11.38-.12h-1.39l16.25,15.9,0.64-.38a5.24,5.24,0,0,1,6.24.3,5,5,0,0,1,1.41,6.06A2,2,0,0,0,312,159c5.33,5.1,10.56,10.3,15.84,15.45a6.81,6.81,0,0,1,2,5,2.73,2.73,0,0,1-3.26,2.94,8.8,8.8,0,0,1-5.24-2.2c-4.88-4.47-9.84-8.85-14.76-13.26-0.31-.27-0.63-0.53-1-0.81a42,42,0,0,1-27.48,15.32v47.7H267.59v-1.65c0-14.76,0-29.52,0-44.28,0-1.36-.27-1.9-1.76-2.15a40.93,40.93,0,0,1-24.54-13.93c-0.17-.19-0.34-0.37-0.51-0.56a1.72,1.72,0,0,0-.29-0.14,42.78,42.78,0,0,0-4.58,5c-0.79,1.17-.88,2.86-1.09,4.35-0.62,4.38-2.33,8.06-6.23,10.48-3.53,2.2-7.17,2-9.83-.69-3.25-3.24-3.88-7.24-1.68-10.79a9.1,9.1,0,0,1,5.31-4.44c4-1,6.92-3.49,9.62-6.4,1.15-1.24,2.32-2.45,3.55-3.6a1.07,1.07,0,0,0,.21-1.52,41.18,41.18,0,0,1-4.5-20.62c0.05-1.47.23-2.93,0.36-4.61-1.39,0-2.72,0-4.06,0q-17.51-.27-35-0.56a24.21,24.21,0,0,1-4.63-.47c-2.17-.47-2.92-1.5-2.82-3.39a3.92,3.92,0,0,1,3.29-3.91,35.06,35.06,0,0,1,4.41-.29c7.5-.11,15-0.18,22.51-0.26,6-.07,12-0.13,18-0.24a1.49,1.49,0,0,0,1.15-.6,43.44,43.44,0,0,1,9.26-13.68c-1.81-1.7-3.54-3.43-5.38-5a3.82,3.82,0,0,1-1.29-4,2,2,0,0,0-.74-2.19c-4-3.71-8-7.47-12.2-11.42-1.55,1.8-3.08,3.51-4.54,5.29-0.69.84-1.22,1.81-1.85,2.71-1.32,1.87-3,2.93-5.39,2.39a5.48,5.48,0,0,1-3.79-4.74,8.77,8.77,0,0,1,1.41-6.51,75.8,75.8,0,0,1,18.67-19,17.44,17.44,0,0,1,5.73-2.47c3-.72,6.87,2.91,6.51,6a5,5,0,0,1-1.55,2.9c-2.75,2.48-5.66,4.79-8.51,7.16Zm38,56.32-19.62,20.19a31.52,31.52,0,0,0,19.62,12.07V138.6Zm10.63,32.31a31.37,31.37,0,0,0,19.69-11.81l-19.69-17.69v29.5Zm-36-36.87A31,31,0,0,0,244,151.76L261.27,134H242.18Zm9.06-17-5.58,7.09H259Zm18.53-52.36a2.95,2.95,0,1,0-3,2.91A2.73,2.73,0,0,0,269.78,64.72Zm11.89,0a2.7,2.7,0,0,0-2.91-3A3,3,0,1,0,281.67,64.75Zm12.14,0a2.95,2.95,0,0,0-5.89-.16,2.75,2.75,0,0,0,2.87,3.06A2.71,2.71,0,0,0,293.81,64.73Zm-33.35,9.48a2.76,2.76,0,0,0,3-2.81A3,3,0,1,0,260.46,74.21ZM270,71.27a2.95,2.95,0,1,0,3-3A2.72,2.72,0,0,0,270,71.27Zm11.89,0a3,3,0,1,0,3-2.92A2.74,2.74,0,0,0,281.84,71.23Zm-24,5.68a2.95,2.95,0,1,0-3.06,2.86A2.72,2.72,0,0,0,257.88,76.91Zm9,2.86a2.95,2.95,0,1,0-3-3A2.72,2.72,0,0,0,266.84,79.77Zm11.84,0a3,3,0,1,0-2.91-3A2.71,2.71,0,0,0,278.68,79.77Zm14.88-2.93a3,3,0,1,0-3,2.93A2.73,2.73,0,0,0,293.56,76.84ZM275.85,82.9a2.95,2.95,0,1,0-3,2.95A2.73,2.73,0,0,0,275.85,82.9Zm-15.11,3.2a2.95,2.95,0,1,0-2.92-3A2.73,2.73,0,0,0,260.74,86.1Zm24.08-5.9a3,3,0,1,0,0,5.9A3,3,0,0,0,284.82,80.2ZM267,43.34A2.74,2.74,0,0,0,270,40.48a2.95,2.95,0,0,0-5.89-.24A2.73,2.73,0,0,0,267,43.34Zm-9.08-2.62a2.95,2.95,0,0,0-5.89-.21A2.95,2.95,0,1,0,257.88,40.72Zm23.78,0a2.95,2.95,0,0,0-5.89-.13A2.95,2.95,0,1,0,281.67,40.68Zm11.89,0a3,3,0,1,0-5.9,0A3,3,0,0,0,293.56,40.68ZM261,49.92a2.95,2.95,0,1,0-2.94-3A2.74,2.74,0,0,0,261,49.92Zm12-5.64a2.95,2.95,0,0,0-.24,5.89A2.95,2.95,0,1,0,273,44.27Zm14.75,3a3,3,0,1,0-3,2.93A2.73,2.73,0,0,0,287.74,47.24Zm0.18,5.24a2.95,2.95,0,1,0,3-2.9A2.72,2.72,0,0,0,287.92,52.49Zm-30,.34a2.95,2.95,0,1,0-3,2.91A2.72,2.72,0,0,0,257.88,52.83Zm12.14,0a2.95,2.95,0,1,0-3,3A2.72,2.72,0,0,0,270,52.78Zm9,3a2.95,2.95,0,1,0-2.95-3A2.73,2.73,0,0,0,279,55.74Zm-18.23,6.33a2.95,2.95,0,1,0-2.94-3A2.72,2.72,0,0,0,260.75,62.06Zm12.14,0a2.95,2.95,0,1,0-2.94-3A2.73,2.73,0,0,0,272.89,62.06Zm12-5.9a3,3,0,0,0-.29,5.9,2.79,2.79,0,0,0,3.13-2.81A2.74,2.74,0,0,0,284.91,56.16ZM252,64.57a2.95,2.95,0,1,0,3.09-2.84A2.73,2.73,0,0,0,252,64.57Zm32.25,46-6.07-1.61v7.31ZM267.54,109l-4.73,1.27,4.73,5.29V109Zm-40,66.64-0.47-.37c-1.06.93-2.16,1.83-3.17,2.81-0.46.45-.8,1.21,0,1.59a1.66,1.66,0,0,0,1.57-.37A39.12,39.12,0,0,0,227.52,175.62Z" transform="translate(0 0.44)"/><path class="cls-1" d="M241.65,19.82l-4.24.72a29.54,29.54,0,0,0-1.47-2.82,2.86,2.86,0,0,0-1.24-.7,1,1,0,0,0-.49.07c-1.28.24-3,.07-3.73,0.83s-0.62,2.43-.9,3.81c-2.38.5-4.83,1-7.3,1.5a1.23,1.23,0,0,1-.83-0.71c-0.47-1.17-.8-2.39-1.27-3.56-0.69-1.72-1.25-2-3-1.56L214.5,18,216,24.69l-4,.93L207.86,7.77c3.28-.7,6.37-1.62,9.52-2,3.83-.44,6.63,4.2,4.84,7.72-0.15.3-.34,0.58-0.38,0.64a33.57,33.57,0,0,1,2.2,3.52,30.46,30.46,0,0,1,1.23,3.76l0.34,0c0.36-2.12.73-4.24,1.09-6.37,0.6-3.57,1.17-7.15,1.83-10.71a1.54,1.54,0,0,1,1-1c3.11-.64,3.11-0.62,4.59,2.16L241,18.46C241.17,18.86,241.37,19.27,241.65,19.82Zm-27.93-5.2c1.31-.31,2.51-0.53,3.67-0.89s1.54-1.18,1.17-2.51-1-1.75-2.2-1.53-2.36.54-3.59,0.82Zm18-5.33h-0.26L230.79,14l3.08-.52Z" transform="translate(0 0.44)"/><path class="cls-1" d="M177,17.57c3-.95,5.78-2.06,8.7-2.72a6,6,0,0,1,5.93,2.36,12.52,12.52,0,0,1,3,9.73,5.91,5.91,0,0,1-3.58,5c-2.49,1.09-5.09,1.94-7.82,3ZM182.36,20l3.43,9.61c4.58-1.2,5.63-2.83,4.35-6.56C188.68,18.83,186.86,18.09,182.36,20Z" transform="translate(0 0.44)"/><path class="cls-1" d="M329.06,24.25l4.68-17.72c2.72,0.74,5.35,1.33,7.88,2.19a6.17,6.17,0,0,1,4.3,5.29,12.11,12.11,0,0,1-3.27,10.44,5.76,5.76,0,0,1-5.41,1.8C334.54,25.74,331.88,25,329.06,24.25Zm7.69-12.74-2.6,9.86c4.1,1.58,6,1.32,7.3-3S341.57,12.47,336.76,11.51Z" transform="translate(0 0.44)"/><path class="cls-1" d="M413.66,51.66a5.73,5.73,0,0,1-.75,4.43c-0.7,1.32-1.33,2.68-2,4.08-0.85-.54-1.88-1.12-2.81-1.83a1.24,1.24,0,0,1-.23-1.14c0.48-1.16,1.1-2.26,1.63-3.41,0.76-1.65.57-2.28-.94-3.27-0.74-.48-1.49-0.95-2.36-1.51l-3.72,5.76-3.52-2.26,9.88-15.41c2.76,1.81,5.53,3.49,8.14,5.38a4.25,4.25,0,0,1,1.47,4.68,5.6,5.6,0,0,1-3.63,4.21A11.74,11.74,0,0,1,413.66,51.66Zm-5.61-5.57c1.14,0.72,2.11,1.39,3.14,2s1.81,0.37,2.57-.73,0.71-2-.3-2.75-2-1.34-3.11-2Z" transform="translate(0 0.44)"/><path class="cls-1" d="M294.57,18.68c-1.35-.07-2.55-0.08-3.75-0.21a1,1,0,0,1-.64-0.73c-0.13-1-.17-2.09-0.2-3.14-0.08-2.57-.58-3.08-3.13-3.18l-2.16-.1L284.26,18h-4.15l1-18.31c3.08,0.17,6.06.29,9,.51a4.42,4.42,0,0,1,4.2,3.27,5.6,5.6,0,0,1-1.13,5.77c-0.2.21-.43,0.39-0.74,0.67C295.1,12.35,293.21,15.8,294.57,18.68ZM285.06,3.57L284.86,8c1.48,0,2.74,0,4,0s1.53-1,1.59-2.05a1.66,1.66,0,0,0-1.42-2C287.74,3.7,286.44,3.67,285.06,3.57Z" transform="translate(0 0.44)"/><path class="cls-1" d="M380.38,22.33l3.77,1.79-2.81,6c2.38-1.06,4.42-1.9,6.39-2.89a2.83,2.83,0,0,1,3,0c1,0.58,2,1,3.26,1.59L386.63,32c-1.68.71-1.65,0.71-1.4,2.59,0.45,3.42.85,6.85,1.26,10.28a4.27,4.27,0,0,1,0,.63c-1.46-.69-2.84-1.29-4.16-2a1.52,1.52,0,0,1-.46-1.05c-0.29-2.59-.54-5.19-0.81-7.88-1.28.3-2.33,0.7-2.84,2.08s-1.2,2.58-1.88,4l-3.78-1.78Z" transform="translate(0 0.44)"/><path class="cls-1" d="M158.36,45.8c-1.38.84-2.75,1.71-4.16,2.48a1.41,1.41,0,0,1-1-.25c-1.95-1.08-3.87-2.2-5.81-3.3-0.35-.2-0.72-0.37-1.12-0.58-1.46,3.16,1.61,4.85,2.14,7.42l-3.51,2L136,37.59l3.63-2.06,3.27,5.77c0.5-2.51,1-4.73,1.35-7A2.75,2.75,0,0,1,145.94,32c1-.45,2-1.06,3.22-1.74-0.53,2.41-1,4.58-1.47,6.73-0.63,2.8-.64,2.8,1.82,4.12l8.89,4.76Z" transform="translate(0 0.44)"/><path class="cls-1" d="M361.85,34.47L358,32.89,364.77,16l3.87,1.54-2.43,6.16c2.42-1.27,4.53-2.35,6.61-3.5a2.22,2.22,0,0,1,2.25-.11c1.13,0.53,2.31,1,3.75,1.55-2.69,1.33-5.09,2.6-7.56,3.72a1.51,1.51,0,0,0-1,2C371,31,371.68,34.7,372.44,38.7c-1.66-.67-3.17-1.23-4.61-1.91a1.8,1.8,0,0,1-.4-1.14c-0.42-2.48-.81-5-1.23-7.57-1.25.39-2.23,0.76-2.64,2.11S362.45,33,361.85,34.47Z" transform="translate(0 0.44)"/><path class="cls-1" d="M163.1,23.51l11.51-4.88,1.58,3.61-7.67,3.29,1.18,2.77,7-2.95,1.46,3.38-7,3L172.55,35l7.83-3.3,1.55,3.63-11.69,5Z" transform="translate(0 0.44)"/><path class="cls-1" d="M302.2,19.52l2.59-18.07L317.14,3.2l-0.5,3.9L308.39,6l-0.46,3,7.56,1.13L315,13.7l-7.53-1-0.57,3.53,8.43,1.24-0.56,3.89Z" transform="translate(0 0.44)"/><path class="cls-1" d="M395.52,29.68l10.95,6.08-1.9,3.47-7.29-4-1.48,2.63,6.65,3.74L400.7,44.8,394,41.11l-1.73,3.12,7.43,4.15-1.92,3.45-11.1-6.16Z" transform="translate(0 0.44)"/><path class="cls-1" d="M206.62,15.42l1,3.52-7.32,2.19,1,3.42,8.16-2.34L210.61,26l-12.19,3.57L193.3,12l12-3.51,1.11,3.78-8,2.35,0.83,2.9Z" transform="translate(0 0.44)"/><path class="cls-1" d="M272,3.64h-8a1.81,1.81,0,0,0-.26.42c-0.05,2.74-.05,2.75,2.69,2.69L271,6.62a2.48,2.48,0,0,1,.46.1v3.66H264V14h8.48V17.8l-12.55.4L259.4,0c0.86-.06,1.64-0.14,2.42-0.17,3-.1,6-0.16,9-0.27,0.85,0,1.26.2,1.2,1.11S272,2.44,272,3.64Z" transform="translate(0 0.44)"/><path class="cls-1" d="M344.63,28.44l5.76-17.34L362.27,15,361,18.78l-7.9-2.58-1,2.84,7.25,2.47L358.23,25,351,22.61,349.85,26l8.08,2.73-1.26,3.73Z" transform="translate(0 0.44)"/><path class="cls-1" d="M429.43,58.61l-3.06-2.25c0.71-2.4.41-3.48-1.34-4.17a2.18,2.18,0,0,0-1.88.27,1.88,1.88,0,0,0,0,1.75c0.69,1.19,1.61,2.26,2.42,3.39,1.78,2.46,1.83,4.9.16,7a5.44,5.44,0,0,1-7.13,1.53,12.58,12.58,0,0,1-3.83-3.16c-1.83-2.3-1.55-5.24.51-7.66l3.07,2.28c-1.49,2.74-.47,4.05,1.81,5.2a1.43,1.43,0,0,0,2-.37,2.52,2.52,0,0,0,.09-1.94,13.94,13.94,0,0,0-1.61-2.4c-0.41-.59-0.87-1.14-1.24-1.75-1.32-2.21-1.27-4.13.14-6a5.24,5.24,0,0,1,5.84-1.94,7.4,7.4,0,0,1,5.33,4.93A5.31,5.31,0,0,1,429.43,58.61Z" transform="translate(0 0.44)"/><path class="cls-1" d="M144.65,53.6L141,56l-3.15-2.6c-1.34.85-2.7,1.68-4,2.59a1.21,1.21,0,0,0-.29,1c0.21,1.07.53,2.11,0.83,3.24l-3.58,2.3c-0.38-1.54-.72-3-1.07-4.36-1.1-4.45-2.18-8.91-3.33-13.35a1.26,1.26,0,0,1,.65-1.64c2.52-1.6,2.51-1.63,4.81.21Zm-12.3-1,2.6-1.7L131,47.61Z" transform="translate(0 0.44)"/><path class="cls-1" d="M124.91,66.94l-15.1-11.58c1-.73,1.91-1.34,2.74-2a1,1,0,0,1,1.51.06c2.41,1.91,4.85,3.78,7.28,5.66a2.93,2.93,0,0,0,1.19.62l-2-5.4c-0.55-1.5-1.06-3-1.66-4.49a1,1,0,0,1,.46-1.45c0.91-.59,1.77-1.26,2.74-2l5.65,15.81c0.76,2.14.76,2.14-1.06,3.48Z" transform="translate(0 0.44)"/><path class="cls-1" d="M158.4,45.84c-0.6-1.37-1.17-2.77-1.82-4.12-1.77-3.67-3.58-7.33-5.37-11-0.18-.37-0.33-0.76-0.52-1.23l10.56-5.15L163,27.88l-6.85,3.38,1.46,3,5.92-2.86,1.65,3.3-5.91,2.92,3.17,6.62-4.07,1.58Z" transform="translate(0 0.44)"/><path class="cls-1" d="M248,19.21l-4.13.45L242.23,5.49l-4.67.45-0.48-3.88,13.56-1.54,0.43,3.91L246.4,5Z" transform="translate(0 0.44)"/><path class="cls-1" d="M323.59,23.1l-4.07-.85,2.8-14-4.6-1,0.74-3.84,13.37,2.68L331.07,10l-4.63-.86Z" transform="translate(0 0.44)"/><path class="cls-1" d="M252.32,0.47l4.16-.27,1.31,18.18-4.16.31Z" transform="translate(0 0.44)"/><path class="cls-1" d="M299.8,19.31l-3.92-.39,1.81-18.13c1.27,0.11,2.47.18,3.65,0.35a0.88,0.88,0,0,1,.43.72C301.21,7.58,300.62,13.31,300,19A1,1,0,0,1,299.8,19.31Z" transform="translate(0 0.44)"/><path class="cls-1" d="M121.63,256.9a23.91,23.91,0,0,1,7.3-17.89q7.3-7.1,18.49-7.1A92.54,92.54,0,0,1,158.94,233a18.08,18.08,0,0,1,3.75.84q1.61,0.57,1.61,1.11l-0.13.4a22.24,22.24,0,0,0-.67,4.09,23.74,23.74,0,0,0-.33,3.55q0,1.21-2.17,1.21a0.8,0.8,0,0,1-1-.8V242.9a11.09,11.09,0,0,0-.47-3.52Q159.08,238,156.2,237a20.34,20.34,0,0,0-6.7-1,19.93,19.93,0,0,0-8.71,1.74,16.26,16.26,0,0,0-7,7.27,24.23,24.23,0,0,0-2.58,11.29q0,9.45,5.49,15.74a17.47,17.47,0,0,0,13.73,6.3,23.63,23.63,0,0,0,7-1,10.68,10.68,0,0,0,4.76-2.58l0.6-.4,0.33,0.13a1.82,1.82,0,0,1,.44.47,1.27,1.27,0,0,1,.3.74l-0.16.54q-0.49,1.14-.57,1.41l-0.4,1.14-0.13.33-0.47.33a31.8,31.8,0,0,1-14.42,3.08q-11.82,0-19-7T121.63,256.9Z" transform="translate(0 0.44)"/><path class="cls-1" d="M169.6,266.48q0-7.77,4.79-12.36t12.9-4.59a18.78,18.78,0,0,1,7.84,1.61q8.37,3.48,8.37,15,0,7.57-4.72,12t-13,4.39q-7.64,0-11.93-4.22T169.6,266.48Zm10.18-9.25a19.57,19.57,0,0,0-1.34,8q0,6.63,2.21,10.32a6.86,6.86,0,0,0,6.16,3.69,6.62,6.62,0,0,0,5.69-3.08q2.14-3.08,2.14-8.37,0-7.23-2.08-11.09a6.54,6.54,0,0,0-6-3.85,7.3,7.3,0,0,0-4,1.27A7.06,7.06,0,0,0,179.78,257.23Z" transform="translate(0 0.44)"/><path class="cls-1" d="M209.41,254.35h-0.54a0.58,0.58,0,0,1-.48-0.26V253q0-.74.53-0.74H210a15.26,15.26,0,0,0,5-.8q2.71-1.09,4.82-1.88h0.79l0.26,0.13,0.92,1.22v0.41q-0.24,1.15-.39,2.47t-0.21,1.73l2.13-2.88q2.33-3.08,5.33-3.08a3.88,3.88,0,0,1,1.83.4,1.17,1.17,0,0,1,.77,1l-0.13.74a11,11,0,0,0-.33,1.81,16.12,16.12,0,0,0-.13,1.81l0.2,2.08,0.07,0.6-0.2.47a2.33,2.33,0,0,1-1.4.67,0.71,0.71,0,0,1-.67-0.34l-0.8-1.51a2.51,2.51,0,0,0-2.33-1.23,3.76,3.76,0,0,0-3.13,1.55,6.81,6.81,0,0,0-1.2,4.26v13.31a6.49,6.49,0,0,0,.6,3.41,4,4,0,0,0,2.61,1.18h0.67a0.62,0.62,0,0,1,.6.58l-0.33,1.23a0.83,0.83,0,0,1-.4.19h-1.07a52.22,52.22,0,0,0-7.3-.27l-6.36.27h-1.07a0.43,0.43,0,0,1-.23-0.06l-0.17-.13-0.33-1.08a0.66,0.66,0,0,1,.67-0.74h0.6a3.61,3.61,0,0,0,2.08-.8,2.82,2.82,0,0,0,.74-1.71q0.13-1.11.2-2.28t0.07-2.31v-8.24a65.58,65.58,0,0,0-.31-8.74,1.68,1.68,0,0,0-1.87-1.37h-1.16Z" transform="translate(0 0.44)"/><path class="cls-1" d="M234.92,254.35h-0.54a0.57,0.57,0,0,1-.47-0.26L233.65,253q0-.74.54-0.74h1.07a16.49,16.49,0,0,0,5.09-.76q2.75-1,4.89-1.79l0.4-.07H246l0.27,0.13,0.94,1.21v0.4a8.69,8.69,0,0,0-.33,1.41,17.42,17.42,0,0,0-.4,2.21l3.15-2.28a19.69,19.69,0,0,1,4.05-2.61,9.45,9.45,0,0,1,3.72-.67,11.24,11.24,0,0,1,5.16,1.21,7.71,7.71,0,0,1,3.42,3,10.9,10.9,0,0,1,.94,5l-0.2,6.93v4q0,4.37.2,6.59a4.6,4.6,0,0,0,.84,2.79,4.31,4.31,0,0,0,2.31.77h0.54a0.61,0.61,0,0,1,.67.6L271,281.63l-0.4.19h-1.14a34.38,34.38,0,0,0-5.43-.2h-0.87l-4.42.2h-0.4q-0.4,0-.4-1.14l0.17-3.55q0.05-.67.11-4t0.06-5.9V264.8q0-2.14,0-4.05a10.2,10.2,0,0,0-.5-3.22,3.79,3.79,0,0,0-1.73-2,5.6,5.6,0,0,0-2.86-.74,7.3,7.3,0,0,0-2.6.5,7.56,7.56,0,0,0-2.53,1.65,3.8,3.8,0,0,0-1.53,2.36v16a6.35,6.35,0,0,0,.61,3.44,4.25,4.25,0,0,0,2.72,1.14h0.68a0.55,0.55,0,0,1,.54.6l-0.27,1.21-0.33.19h-1.13l-7.14-.27-6.54.27h-1l-0.47-.19-0.27-1.08a0.66,0.66,0,0,1,.67-0.74h0.54q2.08-.33,2.58-1.47t0.5-5.56v-9a58.18,58.18,0,0,0-.3-8.11,1.66,1.66,0,0,0-1.84-1.34h-1.14Z" transform="translate(0 0.44)"/><path class="cls-1" d="M294.14,277.06l-2.14,2a14.37,14.37,0,0,1-3.62,2.61,8.93,8.93,0,0,1-3.75.74,8.12,8.12,0,0,1-5.8-2.11,7.23,7.23,0,0,1-2.24-5.53,11.3,11.3,0,0,1,.51-3.28,7.09,7.09,0,0,1,1.25-2.55,12.31,12.31,0,0,1,3.88-2.85,28.16,28.16,0,0,1,6.28-2.24,18.68,18.68,0,0,0,4.49-1.44,2.32,2.32,0,0,0,.88-2.11q0-5.49-5.14-5.49a9.93,9.93,0,0,0-3.55.6,5,5,0,0,0-2.2,1.37,7.46,7.46,0,0,0-1.08,2.71,1,1,0,0,1-1.22.8q-1.76,0-1.76-.94v-2l-0.13-2a1.21,1.21,0,0,1,.5-1,7.2,7.2,0,0,1,1-.64q0.87-.47,1.34-0.67a32,32,0,0,1,5.41-2.21,19.44,19.44,0,0,1,4.94-.54q6.15,0,8.62,3.36a6.66,6.66,0,0,1,1.07,2.38,16.51,16.51,0,0,1,.33,3.73l-0.2,4.83v3.69q0,1.81.07,4.5t0.13,4.1a2.81,2.81,0,0,0,.64,2,4.06,4.06,0,0,0,2.38.84h0.6a0.66,0.66,0,0,1,.67.6L306,281.62l-0.33.2h-1.14l-3-.27-6.91.27a5.74,5.74,0,0,1-.64,0,0.41,0.41,0,0,1-.3-0.5l0.47-2.08v-2.14Zm-0.27-6.23v-5.69q-0.94.54-2.41,1.21l-1.47.74a13.83,13.83,0,0,0-3.38,1.78A5.71,5.71,0,0,0,285,271.1a6.31,6.31,0,0,0-.33,2A3.89,3.89,0,0,0,285.7,276a4.07,4.07,0,0,0,3,1.07,4.63,4.63,0,0,0,3.69-1.74A6.71,6.71,0,0,0,293.88,270.83Z" transform="translate(0 0.44)"/><path class="cls-1" d="M321.14,267.48l-1.94-2.95-3.15-4.69-2.28-3.22a3.24,3.24,0,0,0-2.21-1.14l-1.14.13-0.4.07q-0.67,0-.67-1.67a0.86,0.86,0,0,1,.74-0.87l2.65-.94a19.92,19.92,0,0,0,2.11-.87q1.61-.74,3.28-1.41a3.57,3.57,0,0,1,1.14-.33q1.07,0,2.61,2.75l2.75,5,1.94,3.35a95.77,95.77,0,0,0,5.43-8,13.45,13.45,0,0,0,.7-1.17l0.37-.7a1,1,0,0,1,.8-0.6h0.54l1.41,0.07,1.47,0.07,2.95-.2a0.68,0.68,0,0,1,.44.13l0.23,0.2v0.94q0,0.4-1.07.7a7,7,0,0,0-2.34,1.31,48.64,48.64,0,0,0-6.3,6.77l-2.88,3.48,5.56,8.78a19.41,19.41,0,0,0,2.81,3.62,3.22,3.22,0,0,0,2.14.87l1.74-.13h0.27q0.8,0,.8,1.14a3.26,3.26,0,0,1-.1,1.07,1.12,1.12,0,0,1-.57.4L337.22,281a16.66,16.66,0,0,1-4.09,1.34q-1.88,0-4.15-2.61a11.68,11.68,0,0,1-1.47-1.78q-0.6-.9-2.55-4.19L323,270.5l-1.67,2.21-2.48,3.68-2.21,3.22-1,1.74a1.08,1.08,0,0,1-.74.47h-0.4q-0.54-.07-1.24-0.1l-1.11,0-2.61.13a0.77,0.77,0,0,1-.94-0.87,1.05,1.05,0,0,1,.6-1.07l1.07-.4a8.53,8.53,0,0,0,1.64-1.37q1-1,3-3.32,1.41-1.54,2.55-2.88Q318.93,270.16,321.14,267.48Z" transform="translate(0 0.44)"/><path class="cls-1" d="M346.13,277.13a4.58,4.58,0,0,1,4.62-4.62,4.55,4.55,0,0,1,3.35,1.34,4.47,4.47,0,0,1,1.34,3.28,4.54,4.54,0,0,1-1.34,3.35,4.46,4.46,0,0,1-3.28,1.34A4.58,4.58,0,0,1,346.13,277.13Z" transform="translate(0 0.44)"/><path class="cls-1" d="M362.15,254.35h-0.54a0.57,0.57,0,0,1-.47-0.26L360.87,253q0-.74.54-0.74h1.07a16.49,16.49,0,0,0,5.09-.76q2.75-1,4.89-1.79l0.4-.07h0.4l0.27,0.13,0.94,1.21v0.4a8.69,8.69,0,0,0-.33,1.41,17.33,17.33,0,0,0-.4,2.21l3.15-2.28a19.67,19.67,0,0,1,4.05-2.61,9.46,9.46,0,0,1,3.72-.67,11.54,11.54,0,0,1,2.68.3,11.4,11.4,0,0,1,2.48.91,7.72,7.72,0,0,1,3.42,3,10.9,10.9,0,0,1,.94,5l-0.2,6.93v4q0,4.37.2,6.59A4.58,4.58,0,0,0,395,279a4.31,4.31,0,0,0,2.31.77h0.54a0.61,0.61,0,0,1,.67.6l-0.27,1.21-0.4.19h-1.14a34.35,34.35,0,0,0-5.43-.2h-0.87l-4.42.2h-0.4q-0.4,0-.4-1.14l0.17-3.55q0.06-.67.11-4t0.06-5.9V264.8q0-2.14,0-4.05a10.16,10.16,0,0,0-.5-3.22,3.79,3.79,0,0,0-1.73-2,5.6,5.6,0,0,0-2.86-.74,7.3,7.3,0,0,0-2.6.5,7.55,7.55,0,0,0-2.53,1.65,3.8,3.8,0,0,0-1.53,2.36v16a6.35,6.35,0,0,0,.61,3.44,4.25,4.25,0,0,0,2.72,1.14h0.68a0.55,0.55,0,0,1,.54.6L378,281.63l-0.33.19h-1.13l-7.14-.27-6.54.27h-1l-0.47-.19-0.27-1.08a0.66,0.66,0,0,1,.67-0.74h0.54q2.08-.33,2.58-1.47t0.5-5.56v-9a58.18,58.18,0,0,0-.3-8.11,1.66,1.66,0,0,0-1.84-1.34h-1.14Z" transform="translate(0 0.44)"/><path class="cls-1" d="M403,236.93h-0.55a0.6,0.6,0,0,1-.48-0.24l-0.27-1c0-.49.18-0.74,0.54-0.74h1.08a16,16,0,0,0,5-.87q2.83-1.09,5-1.81h0.81l0.27,0.13,0.94,1.14v0.47l-0.2.88a21.53,21.53,0,0,0-.4,4.17q-0.07,2.76-.07,6.32v29.81a7.89,7.89,0,0,0,.51,3.2q0.51,1.11,2.75,1.38h0.68a0.62,0.62,0,0,1,.61.58L419,281.63l-0.34.19h-1.14l-6.39-.27a52.62,52.62,0,0,0-7.33.27h-1.08l-0.4-.19L402,280.55a0.6,0.6,0,0,1,.61-0.74h0.61q2-.27,2.52-1.41a5.61,5.61,0,0,0,.41-1.78q0.13-1.24.14-3.93v-33q0-2.75-2.07-2.76H403Z" transform="translate(0 0.44)"/><path class="cls-1" d="M149.45,306.76h-0.31a0.33,0.33,0,0,1-.27-0.14V306c0-.28.1-0.42,0.3-0.42h0.6a8.63,8.63,0,0,0,2.83-.45q1.53-.61,2.72-1.06h0.45l0.15,0.08,0.52,0.69v0.23c-0.09.43-.16,0.9-0.22,1.4s-0.1.82-.12,1l1.2-1.63a3.76,3.76,0,0,1,3-1.74,2.2,2.2,0,0,1,1,.23,0.66,0.66,0,0,1,.43.57l-0.08.42a6.24,6.24,0,0,0-.19,1,9.19,9.19,0,0,0-.08,1l0.11,1.17,0,0.34-0.11.26a1.32,1.32,0,0,1-.79.38,0.4,0.4,0,0,1-.37-0.19l-0.45-.85a1.42,1.42,0,0,0-1.31-.7,2.12,2.12,0,0,0-1.77.88,3.84,3.84,0,0,0-.68,2.4v7.51a3.67,3.67,0,0,0,.34,1.93,2.23,2.23,0,0,0,1.47.67h0.38a0.35,0.35,0,0,1,.34.33l-0.19.7a0.47,0.47,0,0,1-.23.11h-0.61a29.31,29.31,0,0,0-4.12-.15l-3.59.15h-0.61a0.24,0.24,0,0,1-.13,0l-0.09-.07-0.19-.61a0.37,0.37,0,0,1,.38-0.42h0.34a2,2,0,0,0,1.17-.45,1.59,1.59,0,0,0,.42-1c0-.42.09-0.84,0.11-1.29s0-.88,0-1.3v-4.65a36.94,36.94,0,0,0-.17-4.94,1,1,0,0,0-1.05-.78h-0.65Z" transform="translate(0 0.44)"/><path class="cls-1" d="M163.82,306.76h-0.31a0.33,0.33,0,0,1-.27-0.14l-0.11-.61c0-.28.1-0.42,0.3-0.42H164a9.3,9.3,0,0,0,2.87-.43q1.55-.58,2.76-1l0.23,0h0.23l0.15,0.08,0.53,0.68v0.23a11,11,0,0,0-.27,1.93q-0.07,1.1-.07,3.64v7.85a4.43,4.43,0,0,0,.29,1.76,1.76,1.76,0,0,0,1.54.81h0.39a0.31,0.31,0,0,1,.31.34l-0.15.72-0.19.11H172l-3.57-.15-4.21.15h-0.57a0.32,0.32,0,0,1-.17,0l-0.09-.08-0.15-.64a0.36,0.36,0,0,1,.35-0.42h0.35a1.59,1.59,0,0,0,1.61-1.38,15.18,15.18,0,0,0,.15-1.72v-5.54a36.79,36.79,0,0,0-.17-4.9,1,1,0,0,0-1.06-.79h-0.65Zm1.88-8.13a2.63,2.63,0,0,1,.73-1.87,2.53,2.53,0,0,1,3.64,0,2.63,2.63,0,0,1,.73,1.87,2.53,2.53,0,0,1-.75,1.85,2.49,2.49,0,0,1-1.84.76,2.36,2.36,0,0,1-1.78-.78A2.58,2.58,0,0,1,165.71,298.63Z" transform="translate(0 0.44)"/><path class="cls-1" d="M180.83,313a10.82,10.82,0,0,0,.19,2.36,6.29,6.29,0,0,0,.79,1.76,5.27,5.27,0,0,0,4.92,2.8,6.85,6.85,0,0,0,2.48-.42,3,3,0,0,0,1.49-1.06,0.83,0.83,0,0,1,.53-0.49,0.35,0.35,0,0,1,.42.38,3.82,3.82,0,0,1-.26,1.1l-0.19.76a0.91,0.91,0,0,1-.49.68,7.17,7.17,0,0,1-2.53,1.21,12.38,12.38,0,0,1-3.29.42,9.16,9.16,0,0,1-3.86-.72,7.94,7.94,0,0,1-3.72-3.31,9.65,9.65,0,0,1-1.46-5.16,8.93,8.93,0,0,1,9.23-9.23,7.14,7.14,0,0,1,5.22,1.82,7,7,0,0,1,1.85,5.22,0.68,0.68,0,0,1-.26.64l-2.42,1a1.73,1.73,0,0,1-.91.23h-7.71Zm0.38-4-0.38,2.19,3.18,0.08,4-.15q0-1.25-.06-1.76a6.71,6.71,0,0,0-.32-1.3,2.83,2.83,0,0,0-2.87-2.19,3.22,3.22,0,0,0-2.19.83A4.45,4.45,0,0,0,181.21,309Z" transform="translate(0 0.44)"/><path class="cls-1" d="M196.57,305.82v-1.63L196.42,302l-0.19-1.55v-0.19a0.49,0.49,0,0,1,.34-0.57l2.08-.49,2.16-.83a0.71,0.71,0,0,1,.72.87l-0.1,1.25a11.94,11.94,0,0,0-.2,2.72v2.23h1.3a10.49,10.49,0,0,0,2-.15l1-.23a0.55,0.55,0,0,1,.38.19,0.53,0.53,0,0,1,.19.37q0,0.15-.08.35a5.57,5.57,0,0,1-.15.58l-0.26.93a0.73,0.73,0,0,1-.72.37h-3.59v1.25q0,4.39.08,6.28a12,12,0,0,0,.34,2.76,1.76,1.76,0,0,0,1.93,1.44,2,2,0,0,0,.95-0.19l0.53-.34,0.23-.08a0.68,0.68,0,0,1,.21.12,1,1,0,0,1,.21.31l0.15,0.5-0.15.27-0.94.92-0.75.8a6.86,6.86,0,0,1-3.11.46,4.46,4.46,0,0,1-3.19-1.06,4,4,0,0,1-1.12-3.08V307.9H195.1a0.41,0.41,0,0,1-.5-0.41,1.81,1.81,0,0,1,1.08-1Z" transform="translate(0 0.44)"/><path class="cls-1" d="M220,304.91v-3.33l-0.15-3.1q0-1.55-1.1-1.55h-1a0.27,0.27,0,0,1-.23-0.14l-0.19-.54a0.34,0.34,0,0,1,.34-0.42h0.57a9,9,0,0,0,2.84-.49q1.59-.61,2.8-1h0.45l0.19,0.08L225,295v0.27a12,12,0,0,0-.34,3q0,2,0,4.67v15.57a3.63,3.63,0,0,0,.34,1.94,2.35,2.35,0,0,0,1.51.65h0.38a0.3,0.3,0,0,1,.34.34l-0.19.68a0.2,0.2,0,0,1-.23.15h-0.6l-3.25-.19h-1.23a6.89,6.89,0,0,0-1.38.19h-0.23q-0.34,0-.34-0.45l0.08-1.1a6.49,6.49,0,0,0,.11-1.48,12.16,12.16,0,0,1-2.89,2.38,6.16,6.16,0,0,1-2.89.64,6.08,6.08,0,0,1-4.84-2.27,8.65,8.65,0,0,1-1.93-5.8,9.87,9.87,0,0,1,3-7.11,9.34,9.34,0,0,1,6.9-3.05A5.14,5.14,0,0,1,220,304.91Zm-3.42,14.33a3.19,3.19,0,0,0,2.51-1,4.11,4.11,0,0,0,.91-2.84v-5.94a3.51,3.51,0,0,0-.8-2.46,2.84,2.84,0,0,0-2.2-.87,4.27,4.27,0,0,0-3.55,1.83,7.46,7.46,0,0,0-1.39,4.63,8.41,8.41,0,0,0,1.25,4.8A3.8,3.8,0,0,0,216.56,319.24Z" transform="translate(0 0.44)"/><path class="cls-1" d="M235.14,313a10.82,10.82,0,0,0,.19,2.36,6.29,6.29,0,0,0,.79,1.76,5.27,5.27,0,0,0,4.92,2.8,6.85,6.85,0,0,0,2.48-.42,3,3,0,0,0,1.49-1.06,0.83,0.83,0,0,1,.53-0.49,0.35,0.35,0,0,1,.42.38,3.82,3.82,0,0,1-.26,1.1l-0.19.76a0.91,0.91,0,0,1-.49.68,7.17,7.17,0,0,1-2.53,1.21,12.38,12.38,0,0,1-3.29.42,9.16,9.16,0,0,1-3.86-.72,7.94,7.94,0,0,1-3.72-3.31,9.65,9.65,0,0,1-1.46-5.16,8.93,8.93,0,0,1,9.23-9.23,7.14,7.14,0,0,1,5.22,1.82,7,7,0,0,1,1.85,5.22,0.68,0.68,0,0,1-.26.64l-2.42,1a1.73,1.73,0,0,1-.91.23h-7.71Zm0.38-4-0.38,2.19,3.18,0.08,4-.15q0-1.25-.06-1.76a6.71,6.71,0,0,0-.32-1.3,2.83,2.83,0,0,0-2.87-2.19,3.22,3.22,0,0,0-2.19.83A4.45,4.45,0,0,0,235.52,309Z" transform="translate(0 0.44)"/><path class="cls-1" d="M249.56,296.93h-0.31a0.33,0.33,0,0,1-.27-0.14l-0.19-.54q0-.42.3-0.42h0.61a9.06,9.06,0,0,0,2.85-.49q1.6-.61,2.81-1h0.45L256,294.4l0.51,0.64v0.26a13.87,13.87,0,0,0-.31,3.11q0,2.08,0,5v8l1.46-1.4,2.29-2.38a4.78,4.78,0,0,0,1.46-2.19v-0.3l-0.11-.23v-0.38a0.53,0.53,0,0,1,.17-0.17,0.24,0.24,0,0,0,.09-0.06h0.3a5.4,5.4,0,0,0,1.78.19l2.08-.19h0.57a0.31,0.31,0,0,1,.17,0l0.09,0.08,0.15,0.64a0.37,0.37,0,0,1-.38.42H266a7.08,7.08,0,0,0-1.32.25,4.44,4.44,0,0,0-1,.55,7.44,7.44,0,0,0-.87.72L261.73,308l-1.93,2.28,1.13,1.41,1.89,2.32,3.4,4.48a16,16,0,0,0,1.78,2,2.47,2.47,0,0,0,1.36.63h0.3a0.34,0.34,0,0,1,.38.34l-0.23.72-0.15.11H269l-2.27-.11h-1.51a3.83,3.83,0,0,0-1.06.11h-0.26a0.59,0.59,0,0,1-.4-0.21,5.54,5.54,0,0,1-.62-0.89,16.32,16.32,0,0,0-1.25-1.7q-0.83-1-2.15-2.5a26.91,26.91,0,0,1-3-3.86,0.6,0.6,0,0,0-.11-0.15,0.15,0.15,0,0,1-.11,0,0.56,0.56,0,0,0-.11.34v5.24a3.47,3.47,0,0,0,.36,1.92,2.37,2.37,0,0,0,1.53.67h0.38a0.31,0.31,0,0,1,.3.34l-0.15.72-0.19.11h-0.64l-3.52-.15-4.24.15h-0.61l-0.23-.11-0.15-.64a0.34,0.34,0,0,1,.34-0.42h0.34a1.58,1.58,0,0,0,1.4-.79,2.42,2.42,0,0,0,.23-0.83l0.08-.95v-20q0-1.55-1.15-1.55h-0.65Z" transform="translate(0 0.44)"/><path class="cls-1" d="M270.32,296.93H270a0.33,0.33,0,0,1-.27-0.14l-0.19-.54q0-.42.3-0.42h0.61a9.06,9.06,0,0,0,2.85-.49q1.6-.61,2.81-1h0.45l0.14,0.08,0.51,0.64v0.26a13.87,13.87,0,0,0-.31,3.11q0,2.08,0,5v8l1.46-1.4,2.29-2.38a4.78,4.78,0,0,0,1.46-2.19v-0.3l-0.11-.23v-0.38a0.53,0.53,0,0,1,.17-0.17,0.24,0.24,0,0,0,.09-0.06h0.3a5.4,5.4,0,0,0,1.78.19l2.08-.19H287a0.31,0.31,0,0,1,.17,0l0.09,0.08,0.15,0.64a0.37,0.37,0,0,1-.38.42h-0.3a7.08,7.08,0,0,0-1.32.25,4.44,4.44,0,0,0-1,.55,7.44,7.44,0,0,0-.87.72L282.49,308l-1.93,2.28,1.13,1.41,1.89,2.32,3.4,4.48a16,16,0,0,0,1.78,2,2.47,2.47,0,0,0,1.36.63h0.3a0.34,0.34,0,0,1,.38.34l-0.23.72-0.15.11h-0.64l-2.27-.11H286a3.83,3.83,0,0,0-1.06.11h-0.26a0.59,0.59,0,0,1-.4-0.21,5.54,5.54,0,0,1-.62-0.89,16.32,16.32,0,0,0-1.25-1.7q-0.83-1-2.15-2.5a26.91,26.91,0,0,1-3-3.86,0.6,0.6,0,0,0-.11-0.15,0.15,0.15,0,0,1-.11,0,0.56,0.56,0,0,0-.11.34v5.24a3.47,3.47,0,0,0,.36,1.92,2.37,2.37,0,0,0,1.53.67h0.38a0.31,0.31,0,0,1,.3.34l-0.15.72-0.19.11h-0.64l-3.52-.15-4.24.15h-0.61l-0.23-.11-0.15-.64a0.34,0.34,0,0,1,.34-0.42h0.34a1.58,1.58,0,0,0,1.4-.79,2.42,2.42,0,0,0,.23-0.83l0.08-.95v-20q0-1.55-1.15-1.55h-0.65Z" transform="translate(0 0.44)"/><path class="cls-1" d="M295.54,313a10.82,10.82,0,0,0,.19,2.36,6.29,6.29,0,0,0,.79,1.76,5.27,5.27,0,0,0,4.92,2.8,6.85,6.85,0,0,0,2.48-.42,3,3,0,0,0,1.49-1.06,0.83,0.83,0,0,1,.53-0.49,0.35,0.35,0,0,1,.42.38,3.82,3.82,0,0,1-.26,1.1l-0.19.76a0.91,0.91,0,0,1-.49.68,7.17,7.17,0,0,1-2.53,1.21,12.38,12.38,0,0,1-3.29.42,9.16,9.16,0,0,1-3.86-.72,7.94,7.94,0,0,1-3.72-3.31,9.65,9.65,0,0,1-1.46-5.16,8.93,8.93,0,0,1,9.23-9.23,7.14,7.14,0,0,1,5.22,1.82,7,7,0,0,1,1.85,5.22,0.68,0.68,0,0,1-.26.64l-2.42,1a1.73,1.73,0,0,1-.91.23h-7.71Zm0.38-4-0.38,2.19,3.18,0.08,4-.15q0-1.25-.06-1.76a6.71,6.71,0,0,0-.32-1.3,2.83,2.83,0,0,0-2.87-2.19,3.22,3.22,0,0,0-2.19.83A4.45,4.45,0,0,0,295.91,309Z" transform="translate(0 0.44)"/><path class="cls-1" d="M309.76,306.76h-0.31a0.33,0.33,0,0,1-.27-0.14V306c0-.28.1-0.42,0.3-0.42h0.6a8.63,8.63,0,0,0,2.83-.45q1.53-.61,2.72-1.06h0.45l0.15,0.08,0.52,0.69v0.23q-0.14.65-.22,1.4t-0.12,1l1.2-1.63a3.75,3.75,0,0,1,3-1.74,2.2,2.2,0,0,1,1,.23,0.66,0.66,0,0,1,.43.57l-0.08.42a6.23,6.23,0,0,0-.19,1,9.19,9.19,0,0,0-.08,1l0.11,1.17,0,0.34-0.11.26a1.32,1.32,0,0,1-.79.38,0.4,0.4,0,0,1-.37-0.19l-0.45-.85a1.42,1.42,0,0,0-1.31-.7,2.12,2.12,0,0,0-1.77.88,3.84,3.84,0,0,0-.68,2.4v7.51a3.67,3.67,0,0,0,.34,1.93,2.23,2.23,0,0,0,1.48.67h0.38a0.35,0.35,0,0,1,.34.33l-0.19.7a0.47,0.47,0,0,1-.23.11h-0.61a29.33,29.33,0,0,0-4.12-.15l-3.59.15H309.6a0.24,0.24,0,0,1-.13,0l-0.09-.07-0.19-.61a0.37,0.37,0,0,1,.38-0.42h0.34a2,2,0,0,0,1.17-.45,1.59,1.59,0,0,0,.42-1q0.07-.62.11-1.29t0-1.3v-4.65a37,37,0,0,0-.17-4.94,1,1,0,0,0-1.06-.78h-0.65Z" transform="translate(0 0.44)"/><path class="cls-1" d="M324.92,320.49l0.08-2.91q0-.45.95-0.45,0.79,0,.83.53l0.15,1.25q0.3,1.78,2.69,1.78a3.46,3.46,0,0,0,2.5-1,3.23,3.23,0,0,0,1-2.42,2.12,2.12,0,0,0-.78-1.78,4.76,4.76,0,0,0-2.48-.76,6.61,6.61,0,0,1-1.1-.09q-0.57-.09-1.21-0.25-3-.76-3-4.16a5.67,5.67,0,0,1,2-4.41,7.17,7.17,0,0,1,4.94-1.8,16.74,16.74,0,0,1,3.71.57,6.1,6.1,0,0,1,1.19.43,0.5,0.5,0,0,1,.28.43v0.23l-0.15,1.1-0.11,2q0,0.53-.87.53t-0.72-.45v-0.26a2.38,2.38,0,0,0-.79-1.85,3,3,0,0,0-2.12-.72,3.24,3.24,0,0,0-2.19.72,2.46,2.46,0,0,0-.83,2,2.11,2.11,0,0,0,.68,1.8,6.6,6.6,0,0,0,2.84.78,8.05,8.05,0,0,1,4,1.38,4,4,0,0,1,1.12,3.16,6.09,6.09,0,0,1-2.27,4.84,8.62,8.62,0,0,1-5.79,1.93,20.51,20.51,0,0,1-2.14-.11,16.91,16.91,0,0,1-2.17-.38,0.45,0.45,0,0,1-.38-0.45Z" transform="translate(0 0.44)"/><path class="cls-1" d="M341.17,296.93h-0.31a0.34,0.34,0,0,1-.27-0.14l-0.16-.54q0-.42.3-0.42h0.61a9.06,9.06,0,0,0,2.85-.49q1.6-.61,2.81-1h0.45l0.14,0.08L348.1,295v0.27a12.06,12.06,0,0,0-.27,2q-0.07,1.18-.07,4.4v5.31l1.85-1.44a8.92,8.92,0,0,1,2-1.25,5.42,5.42,0,0,1,2-.34,6.18,6.18,0,0,1,4.83,2,7.74,7.74,0,0,1,1.81,5.38,10.81,10.81,0,0,1-3,7.73,9.75,9.75,0,0,1-7.37,3.15,10.08,10.08,0,0,1-2.28-.19,10.52,10.52,0,0,1-2.21-1l-0.76.49q-0.38.3-.67,0.49a1,1,0,0,1-.4.19c-0.58,0-.88-0.13-0.88-0.38l0-.42a13.49,13.49,0,0,0,.19-2.67q0-2.21,0-10.31V298.48q0-1.55-1.17-1.55h-0.66ZM351.51,307a4,4,0,0,0-2.67.93,2.9,2.9,0,0,0-1.08,2.29v6.91q0,3.3,2.74,3.3a4.2,4.2,0,0,0,3.59-2.14,9.49,9.49,0,0,0,1.43-5.37,7.69,7.69,0,0,0-1.06-4.36A3.37,3.37,0,0,0,351.51,307Z" transform="translate(0 0.44)"/><path class="cls-1" d="M369,313a10.82,10.82,0,0,0,.19,2.36,6.29,6.29,0,0,0,.79,1.76,5.27,5.27,0,0,0,4.92,2.8,6.85,6.85,0,0,0,2.48-.42,3,3,0,0,0,1.49-1.06,0.83,0.83,0,0,1,.53-0.49,0.35,0.35,0,0,1,.42.38,3.82,3.82,0,0,1-.26,1.1l-0.19.76a0.91,0.91,0,0,1-.49.68,7.17,7.17,0,0,1-2.53,1.21,12.38,12.38,0,0,1-3.29.42,9.15,9.15,0,0,1-3.86-.72,7.94,7.94,0,0,1-3.72-3.31,9.65,9.65,0,0,1-1.46-5.16,8.93,8.93,0,0,1,9.23-9.23,7.14,7.14,0,0,1,5.22,1.82,7,7,0,0,1,1.85,5.22,0.68,0.68,0,0,1-.26.64l-2.42,1a1.73,1.73,0,0,1-.91.23H369Zm0.38-4L369,311.15l3.18,0.08,4-.15q0-1.25-.06-1.76a6.71,6.71,0,0,0-.32-1.3,2.83,2.83,0,0,0-2.87-2.19,3.22,3.22,0,0,0-2.19.83A4.45,4.45,0,0,0,369.39,309Z" transform="translate(0 0.44)"/><path class="cls-1" d="M396.24,304.91v-3.33l-0.15-3.1q0-1.55-1.1-1.55h-1a0.27,0.27,0,0,1-.23-0.14l-0.19-.54a0.34,0.34,0,0,1,.34-0.42h0.57a9,9,0,0,0,2.84-.49q1.59-.61,2.8-1h0.45l0.19,0.08,0.53,0.65v0.27a12,12,0,0,0-.34,3q0,2,0,4.67v15.57a3.63,3.63,0,0,0,.34,1.94,2.35,2.35,0,0,0,1.51.65h0.38a0.3,0.3,0,0,1,.34.34l-0.19.68a0.2,0.2,0,0,1-.23.15h-0.6l-3.25-.19H398a6.89,6.89,0,0,0-1.38.19H396.4q-0.34,0-.34-0.45l0.08-1.1a6.49,6.49,0,0,0,.11-1.48,12.16,12.16,0,0,1-2.89,2.38,6.16,6.16,0,0,1-2.89.64,6.08,6.08,0,0,1-4.84-2.27,8.65,8.65,0,0,1-1.93-5.8,9.87,9.87,0,0,1,3-7.11,9.34,9.34,0,0,1,6.9-3.05A5.14,5.14,0,0,1,396.24,304.91Zm-3.42,14.33a3.19,3.19,0,0,0,2.51-1,4.11,4.11,0,0,0,.91-2.84v-5.94a3.51,3.51,0,0,0-.8-2.46,2.84,2.84,0,0,0-2.2-.87,4.27,4.27,0,0,0-3.55,1.83,7.46,7.46,0,0,0-1.39,4.63,8.41,8.41,0,0,0,1.25,4.8A3.8,3.8,0,0,0,392.82,319.24Z" transform="translate(0 0.44)"/><path class="cls-1" d="M406,306.76h-0.31a0.33,0.33,0,0,1-.27-0.14V306c0-.28.1-0.42,0.3-0.42h0.6a8.63,8.63,0,0,0,2.83-.45q1.53-.61,2.72-1.06h0.45l0.15,0.08,0.52,0.69v0.23q-0.14.65-.22,1.4t-0.12,1l1.2-1.63a3.75,3.75,0,0,1,3-1.74,2.2,2.2,0,0,1,1,.23,0.66,0.66,0,0,1,.43.57l-0.08.42a6.23,6.23,0,0,0-.19,1,9.19,9.19,0,0,0-.08,1l0.11,1.17,0,0.34-0.11.26a1.32,1.32,0,0,1-.79.38,0.4,0.4,0,0,1-.37-0.19l-0.45-.85a1.42,1.42,0,0,0-1.31-.7,2.12,2.12,0,0,0-1.77.88,3.84,3.84,0,0,0-.68,2.4v7.51a3.67,3.67,0,0,0,.34,1.93,2.23,2.23,0,0,0,1.48.67h0.38a0.35,0.35,0,0,1,.34.33l-0.19.7a0.47,0.47,0,0,1-.23.11h-0.61a29.33,29.33,0,0,0-4.12-.15l-3.59.15h-0.61a0.24,0.24,0,0,1-.13,0l-0.09-.07-0.19-.61a0.37,0.37,0,0,1,.38-0.42h0.34a2,2,0,0,0,1.17-.45,1.59,1.59,0,0,0,.42-1q0.07-.62.11-1.29t0-1.3v-4.65a37,37,0,0,0-.17-4.94,1,1,0,0,0-1.06-.78H406Z" transform="translate(0 0.44)"/><path class="cls-1" d="M420.34,306.76H420a0.33,0.33,0,0,1-.27-0.14l-0.11-.61c0-.28.1-0.42,0.3-0.42h0.61a9.3,9.3,0,0,0,2.87-.43q1.55-.58,2.76-1l0.23,0h0.23l0.15,0.08,0.53,0.68v0.23a11,11,0,0,0-.27,1.93q-0.07,1.1-.07,3.64v7.85a4.43,4.43,0,0,0,.29,1.76,1.76,1.76,0,0,0,1.54.81h0.39a0.31,0.31,0,0,1,.31.34l-0.15.72-0.19.11h-0.65l-3.57-.15-4.21.15h-0.57a0.32,0.32,0,0,1-.17,0l-0.09-.08-0.15-.64a0.36,0.36,0,0,1,.35-0.42h0.35a1.59,1.59,0,0,0,1.61-1.38,15.18,15.18,0,0,0,.15-1.72v-5.54a36.79,36.79,0,0,0-.17-4.9,1,1,0,0,0-1.06-.79h-0.65Zm1.88-8.13a2.63,2.63,0,0,1,.73-1.87,2.53,2.53,0,0,1,3.64,0,2.63,2.63,0,0,1,.73,1.87,2.53,2.53,0,0,1-.75,1.85,2.49,2.49,0,0,1-1.84.76,2.36,2.36,0,0,1-1.78-.78A2.58,2.58,0,0,1,422.23,298.63Z" transform="translate(0 0.44)"/><path class="cls-1" d="M437.92,323.48v1a15.45,15.45,0,0,1-.15,2.72,5.35,5.35,0,0,1-.94,1.78,7.62,7.62,0,0,1-6,3.18,3,3,0,0,1-.7-0.06,0.55,0.55,0,0,1-.21-0.59q0-.91.45-0.91h0.19a2,2,0,0,0,1.21-.3,1.66,1.66,0,0,0,.34-0.25,1.51,1.51,0,0,0,.34-0.51,7.35,7.35,0,0,0,.53-2.35q0.15-1.55.15-5.14V312a31.47,31.47,0,0,0-.17-4.52,1,1,0,0,0-1.08-.7H431l-0.19-.14-0.23-.61a0.35,0.35,0,0,1,.38-0.42h0.53a9.45,9.45,0,0,0,2.87-.43l2.82-1,0.19,0h0.19l0.23,0.08,0.49,0.68v0.23a11.9,11.9,0,0,0-.3,2.12q-0.08,1.21-.08,4.24l0.08,4.24v7.79Zm-5.18-24.85a2.57,2.57,0,0,1,.75-1.89,2.61,2.61,0,0,1,3.68,0,2.58,2.58,0,0,1,.75,1.89,2.57,2.57,0,0,1-2.59,2.57,2.56,2.56,0,0,1-1.84-.72A2.45,2.45,0,0,1,432.74,298.63Z" transform="translate(0 0.44)"/><path class="cls-1" d="M449.11,308.39V315q0,1,0,1.84t0.13,2.18a2.8,2.8,0,0,0,.46,1.65,2.32,2.32,0,0,0,1.27.44h0.33a0.37,0.37,0,0,1,.37.34l-0.23.72-0.15.11h-0.64l-3.87-.11-3.83.11h-0.6l-0.19-.11-0.19-.64a0.36,0.36,0,0,1,.34-0.42h0.38a1.85,1.85,0,0,0,1.38-.66,4,4,0,0,0,.32-1.92v-10l-1.29,0q-0.49,0-.49-0.34a0.56,0.56,0,0,1,.15-0.42l1.63-1.78v-2a16,16,0,0,1,.15-2.53,5.43,5.43,0,0,1,.64-1.74,9.62,9.62,0,0,1,2.34-2.8q3.13-2.69,5.88-2.68,1.66,0,1.66.68v0.42c-0.05.3-.09,0.63-0.11,1s0,0.81,0,1.36V298a0.74,0.74,0,0,1-.79.87,0.34,0.34,0,0,1-.34-0.3l-0.08-.6a1.47,1.47,0,0,0-1.63-1.25,2.22,2.22,0,0,0-2.12,1.7,12.8,12.8,0,0,0-.64,2.53,20.73,20.73,0,0,0-.23,3.21V306h2.34l2.61-.3q0.49,0,.49.34l0,0.11-0.27,1.17-0.23.95a0.42,0.42,0,0,1-.46.38l-2.49-.26h-2Z" transform="translate(0 0.44)"/><line class="cls-1" y1="312.26" x2="135.48" y2="312.26"/><rect class="cls-1" y="307.26" width="135.48" height="10"/><line class="cls-1" x1="464.3" y1="312.26" x2="545.42" y2="312.26"/><rect class="cls-1" x="464.3" y="307.26" width="81.12" height="10"/></svg>
