<svg id="icon_brandveiligheid" data-name="icon brandveiligheid" xmlns="http://www.w3.org/2000/svg" viewBox="0 0 850.4 850.4"><title>20161019-icons</title><path d="M425.2,0C190.4,0,0,190.4,0,425.2S190.4,850.4,425.2,850.4,850.4,660.1,850.4,425.2,660,0,425.2,0Zm64.1,489c40.8-79.4,11.8-187.5-60.9-238.3,8.1,36.6-8.6,85.8-32.8,112.8,3.9-20.1.7-42.5-10.7-59.7C368.9,374.8,311,412,348,489.1c-46.8-26.4-94.7-62.4-98.8-120.1-4.5-62.3,47-107.6,50.9-167.4,11.7,21.4,15.1,43.4,16.5,67.4,40.9-50.1,87.4-117.5,77.2-185.8,61.1,23.8,97.5,88.9,113.4,149.2,19.4-17.2,17.7-52,7.9-73.4C640,250,616.2,417.2,489.3,489.1Z"/></svg>
