<svg id="icon_onderhoud" data-name="icon onderhoud" xmlns="http://www.w3.org/2000/svg" viewBox="0 0 850.4 850.4"><title>20161019-icons</title><path d="M425.2,0C190.4,0,0,190.4,0,425.2S190.4,850.4,425.2,850.4,850.4,660,850.4,425.2,660,0,425.2,0ZM225.6,96.5a37.2,37.2,0,1,1,3.3,52.5A37.2,37.2,0,0,1,225.6,96.5Zm23.3,306.2H249l54.1-60.5-39.5,4.3a35.8,35.8,0,0,1-38.9-28l-24-110.2A25.1,25.1,0,0,1,221.8,178l42.4-5.8a25.1,25.1,0,0,1,27.1,16.5l22.5,4.1L350,152.8a16.8,16.8,0,0,1,28.6,16.1c-22.2,27.6-12.6,16.4-42,48.8l-29.9,5.8-42-27.9,42.1,45.7,47.1-9,6.3-1.2c19.7-3.6,26,30.4,6.1,33.1l-62.3,12a16.9,16.9,0,0,1-15.6-5.1l-48.5-52.7L275.4,283a23.6,23.6,0,0,0,25.1,11.8l5.6-1.1,1,7.2,44.4-5.3-12.9,1.5a14.5,14.5,0,0,1-5-22.6l31.8-5.7a20.8,20.8,0,0,0,8.8-37.1l7.8-4.9a12.5,12.5,0,0,0-20.4.7L350,229.3a22.6,22.6,0,0,1,40.6-7.9l3.6-2.2a8,8,0,0,1,10.9,2.5l3.3,5.3,47.6-29.7A14.5,14.5,0,0,1,471.5,222l-47.6,29.7,3.3,5.3a7.9,7.9,0,0,1-2.5,10.9L379,296.3a7.9,7.9,0,0,1-10.9-2.5l-3.3-5.3-11.1,6.9h0A20.2,20.2,0,0,1,369,329h-0.1L279.1,429.5A20.2,20.2,0,0,1,248.9,402.7ZM645.1,189.2c-7.4,7.4-18.1,6.2-25.6,0l-37.9-30.9-26.1,29.4L482.5,270l-84.3,95.3-69.7,78.8c-9.7,10.9-26.1,28.6-35.7,39.5-6.9,7.8-19.6,6.1-26.5-.5s-6-19.2.5-26.5l7.2-7.3c11.7-13.5,23.7-26.7,35.5-40.1l72.9-82.4,84.3-95.3,69.7-78.8,29-32.8a16.1,16.1,0,0,1,13.5-5.1,21.8,21.8,0,0,1,12.7,5l53.5,43.6C652.7,169.7,651.4,182.8,645.1,189.2Z"/></svg>
