<svg id="icon_nanocoating" data-name="icon nanocoating" xmlns="http://www.w3.org/2000/svg" viewBox="0 0 850.4 850.4"><title>20161019-icons</title><path d="M425.2-.1C190.4-.1,0,190.2,0,425.1S190.4,850.3,425.2,850.3,850.4,659.9,850.4,425.1,660-.1,425.2-0.1ZM432,82.9a36,36,0,1,1-36,36A36,36,0,0,1,432,82.9ZM396.2,476.6a19.8,19.8,0,1,1-36.7-15.1l34.2-82.9-1.8-14.4a110.7,110.7,0,0,0,40.5,3.7l1.4,11a19.9,19.9,0,0,1-1.3,10Zm91.8-100.1-20.5,96.7a19.8,19.8,0,1,1-38.8-8.2l19.8-93.4-0.8-6.4a94.8,94.8,0,0,0,37.5-19.5l3.1,24.1A19.9,19.9,0,0,1,488.1,376.5Zm44.3-102.4a17.4,17.4,0,0,1-19.9,14.4l-68.5-11a17.4,17.4,0,0,1-13.1-10l-21.6-47.4,9.9,49.7c1.2,6,9.1,17.2,22.9,19.4l32.1,5.1c-12.7,20.8-31.3,32.8-55.3,31.7a59.6,59.6,0,0,1-33-11.3V184a63.9,63.9,0,0,0-14.8,6.7v76A19.2,19.2,0,0,1,351.9,286h-1.2a108.6,108.6,0,0,0,8.7,16.4c14.3,22,34.1,33.7,58.9,34.8,36.3,1.7,56.8-22,67.3-40.9l20.9,3.4a127.2,127.2,0,0,1-11.3,19c-18.6,25.6-45,40.1-77.9,38.6s-57.5-16.8-75.3-44.6A132.7,132.7,0,0,1,329,286H317.4a19.2,19.2,0,0,1-19-19.2V176.6a19.2,19.2,0,0,1,19.2-19.2h7.1V135.9h-7.9a10.1,10.1,0,0,1,0-20.1h35.9a10.1,10.1,0,0,1,0,20.1h-7.9v21.5h7.1a19.2,19.2,0,0,1,17.6,11.4l2.6-1.2c13.3-5.7,33.6-10,58-1.9h23.5a24.3,24.3,0,0,1,24.3,24.3v45.7L465,233.7,439,201.8l19.6,42.9,59.3,9.5A17.4,17.4,0,0,1,532.4,274.1Zm90.1-10.9L543.7,278a29,29,0,0,0-2.5-20l77.5-14.5A10.1,10.1,0,1,1,622.5,263.2Z"/></svg>
